<?xml version="1.0" encoding="UTF-8" standalone="no"?>
<!DOCTYPE svg PUBLIC "-//W3C//DTD SVG 1.1//EN"
 "http://www.w3.org/Graphics/SVG/1.1/DTD/svg11.dtd">
<!-- Generated by graphviz version 2.49.0 (20210828.1703)
 -->
<!-- Title: G Pages: 1 -->
<svg width="815pt" height="213pt"
 viewBox="0.00 0.00 814.99 213.00" xmlns="http://www.w3.org/2000/svg" xmlns:xlink="http://www.w3.org/1999/xlink">
<g id="graph0" class="graph" transform="scale(1 1) rotate(0) translate(4 209)">
<title>G</title>
<polygon fill="white" stroke="transparent" points="-4,4 -4,-209 810.99,-209 810.99,4 -4,4"/>
<g id="clust1" class="cluster">
<title>cluster0</title>
<polygon fill="none" stroke="white" points="361,-62 361,-114 454.99,-114 454.99,-62 361,-62"/>
</g>
<g id="clust2" class="cluster">
<title>cluster1</title>
<polygon fill="lightgrey" stroke="lightgrey" points="590.99,-62 590.99,-137 798.99,-137 798.99,-62 590.99,-62"/>
<text text-anchor="middle" x="694.99" y="-121.8" font-family="Times,serif" font-size="14.00">Private network 1</text>
</g>
<g id="clust3" class="cluster">
<title>cluster2</title>
<polygon fill="lightgrey" stroke="lightgrey" points="8,-8 8,-137 240,-137 240,-8 8,-8"/>
<text text-anchor="middle" x="124" y="-121.8" font-family="Times,serif" font-size="14.00">Private network 2</text>
</g>
<g id="clust4" class="cluster">
<title>cluster3</title>
<polygon fill="lightgrey" stroke="lightgrey" points="260,-122 260,-197 570.99,-197 570.99,-122 260,-122"/>
<text text-anchor="middle" x="415.5" y="-181.8" font-family="Times,serif" font-size="14.00">Public network</text>
</g>
<!-- INET -->
<g id="node1" class="node">
<title>INET</title>
<ellipse fill="none" stroke="black" cx="408" cy="-88" rx="38.99" ry="18"/>
<text text-anchor="middle" x="408" y="-84.3" font-family="Times,serif" font-size="14.00">Internet</text>
</g>
<!-- R2 -->
<g id="node4" class="node">
<title>R2</title>
<path fill="white" stroke="white" d="M232,-102.73C232,-104.53 217.43,-106 199.5,-106 181.57,-106 167,-104.53 167,-102.73 167,-102.73 167,-73.27 167,-73.27 167,-71.47 181.57,-70 199.5,-70 217.43,-70 232,-71.47 232,-73.27 232,-73.27 232,-102.73 232,-102.73"/>
<path fill="none" stroke="white" d="M232,-102.73C232,-100.92 217.43,-99.45 199.5,-99.45 181.57,-99.45 167,-100.92 167,-102.73"/>
<text text-anchor="middle" x="199.5" y="-84.3" font-family="Times,serif" font-size="14.00">Router 2</text>
</g>
<!-- INET&#45;&gt;R2 -->
<g id="edge5" class="edge">
<title>INET&#45;&gt;R2</title>
<path fill="none" stroke="black" d="M360.47,-82.25C321.33,-80.71 266.42,-80.95 232.18,-82.97"/>
<polygon fill="black" stroke="black" points="360.41,-85.75 370.55,-82.71 360.72,-78.76 360.41,-85.75"/>
</g>
<!-- INET&#45;&gt;R2 -->
<!-- R3 -->
<g id="node8" class="node">
<title>R3</title>
<path fill="white" stroke="white" d="M333,-162.73C333,-164.53 318.43,-166 300.5,-166 282.57,-166 268,-164.53 268,-162.73 268,-162.73 268,-133.27 268,-133.27 268,-131.47 282.57,-130 300.5,-130 318.43,-130 333,-131.47 333,-133.27 333,-133.27 333,-162.73 333,-162.73"/>
<path fill="none" stroke="white" d="M333,-162.73C333,-160.92 318.43,-159.45 300.5,-159.45 282.57,-159.45 268,-160.92 268,-162.73"/>
<text text-anchor="middle" x="300.5" y="-144.3" font-family="Times,serif" font-size="14.00">Router 3</text>
</g>
<!-- INET&#45;&gt;R3 -->
<g id="edge7" class="edge">
<title>INET&#45;&gt;R3</title>
<path fill="none" stroke="black" d="M373.74,-106.91C363.1,-112.97 351.22,-119.72 340.23,-125.98"/>
<polygon fill="black" stroke="black" points="375.83,-109.75 382.79,-101.77 372.37,-103.67 375.83,-109.75"/>
<polygon fill="black" stroke="black" points="338.2,-123.1 331.24,-131.09 341.66,-129.18 338.2,-123.1"/>
</g>
<!-- INET&#45;&gt;R3 -->
<!-- R1 -->
<g id="node2" class="node">
<title>R1</title>
<path fill="white" stroke="white" d="M663.99,-102.73C663.99,-104.53 649.43,-106 631.49,-106 613.56,-106 598.99,-104.53 598.99,-102.73 598.99,-102.73 598.99,-73.27 598.99,-73.27 598.99,-71.47 613.56,-70 631.49,-70 649.43,-70 663.99,-71.47 663.99,-73.27 663.99,-73.27 663.99,-102.73 663.99,-102.73"/>
<path fill="none" stroke="white" d="M663.99,-102.73C663.99,-100.92 649.43,-99.45 631.49,-99.45 613.56,-99.45 598.99,-100.92 598.99,-102.73"/>
<text text-anchor="middle" x="631.49" y="-84.3" font-family="Times,serif" font-size="14.00">Router 1</text>
</g>
<!-- R1&#45;&gt;INET -->
<g id="edge2" class="edge">
<title>R1&#45;&gt;INET</title>
<path fill="none" stroke="black" d="M598.76,-83.1C561.3,-80.9 498.66,-80.66 455.67,-82.38"/>
<polygon fill="black" stroke="black" points="455.29,-78.89 445.46,-82.84 455.61,-85.88 455.29,-78.89"/>
</g>
<!-- R1&#45;&gt;INET -->
<!-- C -->
<g id="node3" class="node">
<title>C</title>
<polygon fill="white" stroke="white" points="790.99,-106 736.99,-106 736.99,-70 790.99,-70 790.99,-106"/>
<text text-anchor="middle" x="763.99" y="-84.3" font-family="Times,serif" font-size="14.00">Client</text>
</g>
<!-- C&#45;&gt;R1 -->
<g id="edge1" class="edge">
<title>C&#45;&gt;R1</title>
<path fill="none" stroke="black" d="M726.77,-81.88C710.47,-81.12 691.14,-81.05 674.23,-81.66"/>
<polygon fill="black" stroke="black" points="726.71,-85.39 736.9,-82.47 727.12,-78.4 726.71,-85.39"/>
<polygon fill="black" stroke="black" points="673.9,-78.17 664.07,-82.12 674.22,-85.16 673.9,-78.17"/>
</g>
<!-- C&#45;&gt;R1 -->
<!-- S -->
<g id="node5" class="node">
<title>S</title>
<polygon fill="white" stroke="white" points="82,-52 28,-52 28,-16 82,-16 82,-52"/>
<text text-anchor="middle" x="55" y="-30.3" font-family="Times,serif" font-size="14.00">Server</text>
</g>
<!-- R2&#45;&gt;S -->
<g id="edge4" class="edge">
<title>R2&#45;&gt;S</title>
<path fill="none" stroke="black" d="M159.56,-67.15C138.4,-58.21 112.44,-48.42 91.79,-41.62"/>
<polygon fill="black" stroke="black" points="158.41,-70.47 168.97,-71.22 161.18,-64.04 158.41,-70.47"/>
<polygon fill="black" stroke="black" points="92.72,-38.24 82.13,-38.54 90.6,-44.91 92.72,-38.24"/>
</g>
<!-- R2&#45;&gt;S -->
<!-- I -->
<g id="node6" class="node">
<title>I</title>
<polygon fill="white" stroke="white" points="94,-106 16,-106 16,-70 94,-70 94,-106"/>
<text text-anchor="middle" x="55" y="-84.3" font-family="Times,serif" font-size="14.00">Inner layer</text>
</g>
<!-- R2&#45;&gt;I -->
<g id="edge3" class="edge">
<title>R2&#45;&gt;I</title>
<path fill="none" stroke="black" d="M156.88,-75.6C140.46,-74.31 121.48,-74.16 104.44,-75.13"/>
<polygon fill="black" stroke="black" points="156.58,-79.08 166.87,-76.56 157.26,-72.12 156.58,-79.08"/>
<polygon fill="black" stroke="black" points="103.84,-71.67 94.12,-75.89 104.35,-78.65 103.84,-71.67"/>
</g>
<!-- R2&#45;&gt;I -->
<!-- I&#45;&gt;R2 -->
<!-- O -->
<g id="node7" class="node">
<title>O</title>
<polygon fill="white" stroke="white" points="562.99,-166 482.99,-166 482.99,-130 562.99,-130 562.99,-166"/>
<text text-anchor="middle" x="522.99" y="-144.3" font-family="Times,serif" font-size="14.00">Outer layer</text>
</g>
<!-- O&#45;&gt;R3 -->
<!-- R3&#45;&gt;INET -->
<!-- R3&#45;&gt;O -->
<g id="edge6" class="edge">
<title>R3&#45;&gt;O</title>
<path fill="none" stroke="black" d="M343.54,-148C380.34,-148 433.85,-148 472.66,-148"/>
<polygon fill="black" stroke="black" points="343.16,-144.5 333.16,-148 343.16,-151.5 343.16,-144.5"/>
<polygon fill="black" stroke="black" points="472.83,-151.5 482.83,-148 472.83,-144.5 472.83,-151.5"/>
</g>
<!-- R3&#45;&gt;O -->
</g>
</svg>
